<?xml version="1.0" standalone="no"?>
<!DOCTYPE svg PUBLIC "-//W3C//DTD SVG 20010904//EN"
 "http://www.w3.org/TR/2001/REC-SVG-20010904/DTD/svg10.dtd">
<svg version="1.0" xmlns="http://www.w3.org/2000/svg"
 width="270.000000pt" height="270.000000pt" viewBox="0 0 270.000000 270.000000"
 preserveAspectRatio="xMidYMid meet">
<metadata>
Created by potrace 1.11, written by Peter Selinger 2001-2013
</metadata>
<g transform="translate(0.000000,270.000000) scale(0.100000,-0.100000)"
fill="#000000" stroke="none">
<path d="M581 1850 c-126 -108 -199 -176 -194 -183 3 -7 18 -28 32 -47 62 -86
88 -84 213 20 53 44 99 80 102 80 3 0 6 -189 6 -420 l0 -420 -135 0 -135 0 0
-85 0 -85 360 0 360 0 0 85 0 85 -115 0 -115 0 -2 568 -3 567 -87 3 -86 3
-201 -171z"/>
<path d="M1913 1998 c-21 -23 -582 -772 -597 -796 -12 -20 14 -132 36 -154 17
-17 40 -18 303 -18 l285 0 0 -160 0 -160 95 0 95 0 0 160 0 160 75 0 c89 0 95
6 95 104 l0 65 -82 3 -83 3 -3 408 -2 407 -98 0 c-89 0 -100 -2 -119 -22z m29
-525 l-3 -273 -194 0 c-107 0 -195 2 -195 5 0 3 71 103 157 223 213 294 235
324 236 320 1 -2 1 -126 -1 -275z"/>
</g>
</svg>
